HIERARCHY
ROOT hip
{
	OFFSET 0.000000 0.000000 0.000000 
	CHANNELS 6 Xposition Yposition Zposition Xrotation Zrotation Yrotation
	JOINT abdomen
	{
		OFFSET 0.000000 3.402643 0.000000 
		CHANNELS 3 Xrotation Zrotation Yrotation
		JOINT chest
		{
			OFFSET 0.000000 8.438565 -0.680529 
			CHANNELS 3 Xrotation Zrotation Yrotation
			JOINT neck
			{
				OFFSET 0.000000 10.207942 -0.272212 
				CHANNELS 3 Xrotation Zrotation Yrotation
				JOINT head
				{
					OFFSET 0.000000 3.130431 0.000000 
					CHANNELS 3 Xrotation Zrotation Yrotation
					End Site
					{
						OFFSET 0.000000 3.130435 0.000000 
					}
				}
			}
			JOINT lCollar
			{
				OFFSET 3.470700 6.669187 -0.816635 
				CHANNELS 3 Yrotation Zrotation Xrotation
				JOINT lShldr
				{
					OFFSET 3.198488 0.000000 0.000000 
					CHANNELS 3 Zrotation Yrotation Xrotation
					JOINT lForeArm
					{
						OFFSET 10.139888 0.000000 0.000000 
						CHANNELS 3 Yrotation Zrotation Xrotation
						JOINT lHand
						{
							OFFSET 8.370511 0.000000 0.000000 
							CHANNELS 3 Zrotation Yrotation Xrotation
							End Site
							{
								OFFSET 4.083176 0.000000 0.000000 
							}
						}
					}
				}
			}
			JOINT rCollar
			{
				OFFSET -3.470700 6.669187 -0.816635 
				CHANNELS 3 Yrotation Zrotation Xrotation
				JOINT rShldr
				{
					OFFSET -3.198488 0.000000 0.000000 
					CHANNELS 3 Zrotation Yrotation Xrotation
					JOINT rForeArm
					{
						OFFSET -10.139888 0.000000 0.000000 
						CHANNELS 3 Yrotation Zrotation Xrotation
						JOINT rHand
						{
							OFFSET -8.370511 0.000000 0.000000 
							CHANNELS 3 Zrotation Yrotation Xrotation
							End Site
							{
								OFFSET -4.083176 0.000000 0.000000 
							}
						}
					}
				}
			}
		}
	}
	JOINT lThigh
	{
		OFFSET 5.308129 -1.633274 1.361059 
		CHANNELS 3 Xrotation Zrotation Yrotation
		JOINT lShin
		{
			OFFSET -2.041588 -20.007561 0.000000 
			CHANNELS 3 Xrotation Zrotation Yrotation
			JOINT lFoot
			{
				OFFSET 0.000000 -19.190928 -1.224953 
				CHANNELS 3 Xrotation Yrotation Zrotation
				End Site
				{
					OFFSET 0.000000 -2.449906 4.627600 
				}
			}
		}
	}
	JOINT rThigh
	{
		OFFSET -5.308129 -1.633274 1.361059 
		CHANNELS 3 Xrotation Zrotation Yrotation
		JOINT rShin
		{
			OFFSET 2.041588 -20.007561 0.000000 
			CHANNELS 3 Xrotation Zrotation Yrotation
			JOINT rFoot
			{
				OFFSET 0.000000 -19.190928 -1.224953 
				CHANNELS 3 Xrotation Yrotation Zrotation
				End Site
				{
					OFFSET 0.000000 -2.449906 4.627600 
				}
			}
		}
	}
}
MOTION
Frames: 18
Frame Time: 0.011111
48.129955 51.669956 13.662723 -3.793501 2.149943 168.435837 7.825276 1.815627 1.517952 0.792683 3.895186 0.911652 -9.732109 -6.952959 0.311581 50.897953 -4.808580 5.640558 12.413046 -14.960623 4.251975 -31.646090 -32.067528 76.843643 -73.635567 9.738531 17.629169 6.992188 16.005859 -46.139885 -6.427974 8.898234 2.089853 65.835091 51.537876 31.379774 65.126076 -10.192732 13.664555 -7.001954 -15.996095 60.361324 -25.162004 6.932169 3.937135 33.215061 -5.205861 -2.467304 -9.322256 -1.459729 -0.881449 5.400197 -0.790931 4.563902 44.822807 4.905541 3.412894 2.819596 -1.394438 0.509053 
48.055832 51.744080 13.103803 -3.512885 1.729255 168.319305 8.214999 1.454632 0.980346 1.138622 4.273551 0.813409 -10.581689 -7.873915 0.746657 51.107635 -4.616320 6.161825 12.413046 -14.960623 4.251975 -32.511311 -31.947578 75.625778 -73.655945 9.734278 17.641176 6.992188 16.005859 -46.315666 -6.427974 8.898234 2.089853 65.757057 52.104450 32.036282 64.783020 -10.183478 13.517586 -7.001954 -15.996095 60.351559 -23.919386 6.267296 4.314915 32.905792 -5.221375 -2.439282 -9.848748 -1.578465 -0.889171 3.936779 -1.392722 4.397240 47.486130 4.817047 3.631039 4.588459 -1.983691 0.487103 
47.961685 51.798195 12.563650 -3.215060 1.281321 168.317764 9.139681 1.390260 -0.005502 1.513377 4.537071 0.602672 -12.898683 -9.462152 1.748831 52.123497 -4.121890 7.365722 12.413046 -14.960623 4.251975 -33.840153 -32.129093 74.033585 -73.443817 9.762304 17.540045 6.992188 16.005859 -46.091057 -6.427974 8.898234 2.089853 65.748367 53.403973 33.120281 64.321342 -10.165978 13.303081 -7.001954 -15.996095 60.400394 -22.722504 5.448530 4.511338 32.567699 -5.230397 -2.417803 -10.219357 -1.489055 -0.887594 2.439982 -2.000614 4.197569 50.187199 4.709120 3.839116 5.330170 -2.335651 0.496058 
47.882557 51.829155 12.049770 -2.889249 0.549260 168.375381 9.275503 0.464254 -0.211218 1.210584 4.632242 0.538284 -12.565378 -9.419514 1.738431 52.397652 -3.992631 7.646150 12.413046 -14.960623 4.251975 -33.777969 -31.790915 73.985283 -73.338341 9.777095 17.489273 6.992188 16.005859 -46.012932 -6.427974 8.898234 2.089853 65.898247 53.008953 32.819031 64.053658 -10.156086 13.183376 -7.001954 -15.996095 60.439457 -21.461163 4.354383 4.790655 32.220818 -5.230842 -2.394413 -10.661188 -1.443339 -0.884805 0.887171 -2.894211 4.001193 52.845524 4.611165 4.036289 4.995000 -2.938296 0.551201 
47.833450 51.862621 11.534950 -2.619038 -0.011198 168.171585 9.468597 -0.306050 -0.216249 1.251084 4.766153 0.574515 -12.771129 -9.597217 1.807648 52.738037 -3.756224 7.856741 12.413046 -14.960623 4.251975 -33.797905 -31.867716 73.728233 -73.265083 9.788338 17.452742 6.992188 16.005859 -45.993401 -6.427974 8.898234 2.089853 66.016190 53.068996 32.728630 63.710945 -10.141410 13.037720 -7.001954 -15.996095 60.312504 -20.207848 3.611308 5.491024 31.774096 -5.235634 -2.367427 -11.139981 -1.746551 -0.923745 -0.605452 -3.603467 3.934402 55.365490 4.493822 4.234234 3.903559 -3.516075 0.590534 
47.781216 51.919548 11.012937 -2.425391 -0.402698 167.906403 9.513644 -0.844436 -0.074577 1.419019 4.896766 0.640418 -12.923229 -9.568233 1.769259 53.051987 -3.908972 7.725413 12.413046 -14.960623 4.251975 -33.881401 -32.115696 73.570732 -73.021156 9.819085 17.329081 6.992188 16.005859 -45.778553 -6.427974 8.898234 2.089853 66.118042 53.051506 32.614799 63.346058 -10.121417 12.870527 -7.001954 -15.996095 59.921871 -19.050854 3.075660 6.110604 31.335293 -5.250586 -2.314448 -11.624436 -2.096123 -1.008490 -2.099110 -4.042192 3.882628 57.676609 4.386146 4.376434 2.433629 -4.141994 0.609347 
47.715225 51.996174 10.497494 -2.225725 -0.727131 168.007233 9.457893 -1.265613 -0.221237 1.537901 5.014948 0.632844 -12.740946 -9.244397 1.682611 53.265694 -4.483723 7.549112 12.413046 -14.960623 4.251975 -34.048710 -32.081486 73.169785 -72.874023 9.839755 17.264307 6.992188 16.005859 -45.895744 -6.427974 8.898234 2.089853 66.202507 52.848331 32.419647 63.002670 -10.100511 12.716782 -7.001954 -15.996095 59.453121 -17.900793 2.419539 6.258154 30.819447 -5.249374 -2.263518 -12.003016 -2.300076 -1.069006 -3.503188 -4.411077 3.613407 59.760555 4.287074 4.529958 0.757621 -5.316784 0.601723 
47.647354 52.050282 9.981422 -1.950768 -0.638790 168.296036 9.630373 -1.100011 -0.554397 1.421192 5.103424 0.532959 -12.298774 -9.186381 1.644472 53.186909 -4.829890 7.585860 12.413046 -14.960623 4.251975 -34.352119 -31.671932 72.631905 -72.915169 9.832286 17.288237 6.992188 16.005859 -46.159412 -6.427974 8.898234 2.089853 66.034401 52.437840 32.388126 62.691799 -10.080647 12.584872 -7.001954 -15.996095 59.082031 -16.612356 2.058529 5.853803 30.194988 -5.244267 -2.226831 -12.331843 -2.036060 -0.985319 -4.566009 -4.390811 3.143239 61.677414 4.171022 4.664023 -0.806370 -6.943706 0.522742 
47.590427 52.098763 9.464101 -1.521558 -0.886379 168.486099 10.027815 -1.429863 -0.931141 1.119565 5.329025 0.428429 -11.963794 -9.528927 1.655466 53.125538 -4.665936 7.799038 12.413046 -14.960623 4.251975 -34.690071 -31.288435 72.240364 -72.778168 9.850584 17.224611 6.992188 16.005859 -46.364491 -6.427974 8.898234 2.089853 65.824623 52.020683 32.519611 62.250919 -10.045433 12.376903 -7.001954 -15.996095 58.828117 -15.105957 1.386458 5.628370 29.526754 -5.259706 -2.155181 -12.649396 -1.847973 -0.946616 -5.653536 -4.813872 2.673713 63.465046 4.073219 4.781114 -2.167167 -8.383533 0.387663 
47.553207 52.136921 8.976494 -1.216520 -1.630211 168.693985 10.213631 -2.431418 -1.264712 0.995638 5.667617 0.368452 -11.997623 -9.780813 1.645011 53.592026 -4.365067 7.983443 12.413046 -14.960623 4.251975 -34.991833 -31.310431 71.759628 -72.501915 9.882302 17.088400 6.992188 16.005859 -46.755116 -6.427974 8.898234 2.089853 65.765503 51.720158 32.346550 61.746986 -10.004857 12.153942 -7.001954 -15.996095 58.447262 -13.825063 0.341402 5.975741 28.879047 -5.268799 -2.102035 -12.671276 -2.134182 -1.028371 -7.136239 -5.730616 2.245442 65.173119 3.985244 4.888780 -3.512149 -9.489824 0.195561 
47.525681 52.163818 8.504210 -1.102903 -1.982389 168.990845 10.347567 -2.838294 -1.588596 1.176254 6.014885 0.330833 -12.494690 -10.011649 1.768885 54.003780 -4.419299 8.060354 12.413046 -14.960623 4.251975 -35.650120 -31.702261 71.112633 -72.098831 9.927752 16.888031 6.992188 16.005859 -47.126213 -6.427974 8.898234 2.089853 65.494171 51.730629 32.244038 61.436840 -9.979865 12.015571 -7.001954 -15.996095 58.330082 -12.810178 -0.263869 6.217817 28.230713 -5.277767 -2.038209 -12.644253 -2.487764 -1.119298 -8.600168 -6.189141 1.758612 66.674210 3.916109 4.979026 -4.929229 -10.411416 -0.031686 
47.483150 52.202293 8.013788 -1.056452 -2.014151 169.410248 10.627149 -2.607555 -2.114713 1.628275 6.046198 0.234101 -13.441528 -10.553819 2.095580 54.068558 -4.156493 8.259920 12.413046 -14.960623 4.251975 -36.278542 -32.341530 70.462555 -71.652428 9.973433 16.685793 6.992188 16.005859 -47.135983 -6.427974 8.898234 2.089853 65.391312 52.171143 32.348160 61.115578 -9.950757 11.875884 -7.001954 -15.996095 58.339844 -11.863348 -0.595800 6.071872 27.693213 -5.277606 -2.006544 -12.828080 -2.669185 -1.145727 -9.870729 -6.414577 1.040261 67.901390 3.828973 5.064982 -6.207223 -10.953680 -0.250784 
47.436234 52.238567 7.526181 -1.154294 -1.806685 169.936615 10.035707 -2.351542 -2.295216 1.516001 5.703500 0.120207 -11.998709 -10.206038 1.662769 53.401386 -3.727242 8.141681 12.413046 -14.960623 4.251975 -35.813576 -31.893490 70.585655 -71.610741 9.979193 16.670120 6.992188 16.005859 -46.950432 -6.427974 8.898234 2.089853 65.748260 51.141121 31.464886 60.751785 -9.916336 11.713166 -7.001954 -15.996095 57.724613 -11.228560 -0.644576 5.763335 27.344534 -5.277916 -1.983326 -13.077750 -2.807306 -1.197268 -11.128273 -6.266993 0.389599 68.882072 3.779405 5.116448 -7.359602 -11.692276 -0.503622 
47.412460 52.250141 7.046391 -1.087475 -1.556701 170.125320 9.966065 -2.161556 -2.322063 1.408049 5.705595 0.090091 -11.562586 -10.079576 1.467102 53.633369 -3.495147 8.154329 12.413046 -14.960623 4.251975 -35.839142 -31.675022 70.616554 -71.577835 9.980391 16.648071 6.992188 16.005859 -46.540276 -6.427974 8.898234 2.089853 65.860619 50.513096 30.762117 60.400265 -9.885579 11.571573 -7.001954 -15.996095 57.050785 -10.450380 -0.547314 5.829530 27.103327 -5.288114 -1.946377 -13.356956 -3.088643 -1.254080 -12.194637 -5.994786 0.075861 69.667038 3.720702 5.153763 -8.608165 -12.615533 -0.803906 
47.380241 52.253273 6.575047 -0.818120 -1.518859 170.166946 10.248336 -2.208804 -2.364130 1.253278 5.900259 0.092864 -11.414551 -9.953886 1.333652 53.839649 -3.809714 7.917047 12.413046 -14.960623 4.251975 -36.167381 -31.732956 70.729355 -71.355385 10.003262 16.545851 6.992188 16.005859 -46.071526 -6.427974 8.898234 2.089853 65.738525 50.020798 30.471075 60.122433 -9.856831 11.446919 -7.001954 -15.996095 56.718750 -9.490137 -0.712939 5.953928 26.884216 -5.287352 -1.936758 -13.789503 -3.305480 -1.308870 -13.191143 -6.034125 -0.112928 70.353531 3.681818 5.200572 -9.895336 -12.828422 -1.134270 
47.334270 52.255146 6.120905 -0.712879 -1.486983 170.466721 10.281272 -2.116199 -2.544332 1.310135 5.729801 0.033625 -11.085524 -9.712753 1.266262 53.659576 -3.903510 7.888663 12.413046 -14.960623 4.251975 -35.986645 -32.073952 71.017212 -71.270126 10.010802 16.508879 6.992188 16.005859 -45.319569 -6.427974 8.898234 2.089853 65.900368 49.585831 30.092737 59.726738 -9.812234 11.276878 -7.001954 -15.996095 56.425785 -8.712140 -0.869237 6.019835 26.693636 -5.293276 -1.921082 -14.113923 -3.664327 -1.408767 -14.331344 -6.081976 -0.410719 70.912308 3.652461 5.229341 -10.923586 -12.639921 -1.323497 
47.309246 52.265465 5.661759 -0.607628 -1.719150 170.837967 10.081673 -2.562280 -2.516145 1.328530 5.621006 0.044801 -10.144671 -9.059894 0.950057 53.108025 -3.893351 7.650774 12.413046 -14.960623 4.251975 -35.399799 -32.343956 71.698936 -71.291039 10.008156 16.510954 6.992188 16.005859 -44.792229 -6.427974 8.898234 2.089853 66.101395 48.715359 29.230057 59.491165 -9.783176 11.173802 -7.001954 -15.996095 56.298828 -7.916484 -1.259566 5.981140 26.461784 -5.306690 -1.914429 -14.257082 -4.178722 -1.546870 -15.530206 -6.432569 -0.674473 71.304466 3.632879 5.258749 -11.670661 -12.536233 -1.491539 
47.284851 52.276104 5.206367 -0.531330 -2.229599 171.318970 10.757777 -2.750501 -3.705204 1.767180 6.199482 -0.197065 -12.375872 -10.101351 1.808169 53.863628 -4.073358 8.267234 12.413046 -14.960623 4.251975 -36.813061 -32.733444 70.227829 -71.142937 10.023238 16.446564 6.992188 16.005859 -45.094963 -6.427974 8.898234 2.089853 65.747551 49.666168 29.989332 59.085762 -9.735387 10.994413 -7.001954 -15.996095 56.425785 -7.192351 -2.020575 5.374827 26.330236 -5.315617 -1.891971 -14.610046 -4.303192 -1.581106 -16.815687 -7.089525 -0.980843 71.500771 3.613369 5.271406 -12.394464 -12.292355 -1.621801 
